<svg xmlns="http://www.w3.org/2000/svg" viewBox="0 0 24 24"><path d="M23.8535252,13.1464844L11.7324314,1.0253906C11.0712986,0.3642578,10.1923923,0,9.2573338,0H2.0000098	c-1.1030273,0-2,0.8969727-2,2v7.2573242c0,0.9350586,0.3642578,1.8139648,1.0253906,2.4750977l12.1210938,12.1210938	C13.2417088,23.9487305,13.3691502,24,13.5000095,24c0.0444336,0,0.0893555-0.0058594,0.1333008-0.0180664	c0.1738281-0.0483398,0.3081055-0.1860352,0.3515625-0.3608398l1.9272461-7.7089844l7.7089844-1.9272461	c0.1748047-0.043457,0.3125-0.1777344,0.3608398-0.3515625C24.0297947,13.4599609,23.9809666,13.2739258,23.8535252,13.1464844z"></path></svg>